# xmcd CD database file
#
# Track frame offsets:
#	183
#	18558
#	34003
#	49533
#	67158
#	82530
#	99858
#	114858
#	126100
#	141858
#	156708
#	171258
#	187233
#	205835
#	218358
#	233508
#
# Disc length: 3347 seconds
#
# Revision: 0
# Processed by: cddbd v1.5.2PL0 Copyright (c) Steve Scherf et al.
# Submitted via: CDex 1.70beta2
#
DISCID=d10d1110
DTITLE=The Fantasy Strings - Tonight We Love
DYEAR=1900
DGENRE=New Age
TTITLE0=How Do You Keep The Music Playing?
TTITLE1=Making Love Out of Nothing At All
TTITLE2=My Foolish Heart
TTITLE3=Always On My Mind
TTITLE4=Leave A Tender Moment Alone
TTITLE5=Memories of You
TTITLE6=I Don't Know Why
TTITLE7=Every Breath I Take
TTITLE8=Finder Of Lost Loves
TTITLE9=Flamingo
TTITLE10=Moonlight in Vermont
TTITLE11=Skylark
TTITLE12=We Still Must Wait
TTITLE13=Come Rain Or Come Shine
TTITLE14=In Love Again
TTITLE15=Love Affair
EXTD=
EXTT0=
EXTT1=
EXTT2=
EXTT3=
EXTT4=
EXTT5=
EXTT6=
EXTT7=
EXTT8=
EXTT9=
EXTT10=
EXTT11=
EXTT12=
EXTT13=
EXTT14=
EXTT15=
PLAYORDER=
